<?xml version="1.0" standalone="no"?>
<!DOCTYPE svg PUBLIC "-//W3C//DTD SVG 20010904//EN"
 "http://www.w3.org/TR/2001/REC-SVG-20010904/DTD/svg10.dtd">
<svg version="1.0" xmlns="http://www.w3.org/2000/svg"
 width="846.000000pt" height="840.000000pt" viewBox="0 0 846.000000 840.000000"
 preserveAspectRatio="xMidYMid meet">

<g transform="translate(0.000000,840.000000) scale(0.100000,-0.100000)"
fill="#000000" stroke="none">
<path d="M0 4200 l0 -4200 4230 0 4230 0 0 4200 0 4200 -4230 0 -4230 0 0
-4200z m4415 2950 c133 -34 258 -118 339 -229 19 -26 103 -175 187 -332 239
-450 591 -1076 727 -1294 l29 -47 25 44 c122 210 503 1000 664 1375 64 150
120 237 196 307 184 171 428 218 666 128 73 -28 184 -105 237 -165 50 -57 126
-204 144 -279 25 -107 15 -191 -149 -1245 -291 -1875 -430 -2756 -441 -2797
-43 -160 -179 -322 -329 -393 -141 -67 -252 -84 -390 -59 -220 40 -411 203
-488 418 -23 65 -26 88 -25 203 0 110 10 187 61 505 34 206 60 375 58 377 -1
1 -24 -5 -51 -13 -71 -22 -227 -29 -311 -15 -234 41 -437 206 -689 563 -38 54
-70 96 -72 95 -1 -2 -25 -615 -53 -1362 -36 -981 -54 -1379 -65 -1429 -45
-213 -231 -410 -445 -470 -256 -71 -540 33 -690 253 -20 31 -277 585 -570
1231 -292 646 -535 1178 -538 1182 -4 3 -86 -102 -182 -235 -96 -132 -200
-271 -231 -307 -95 -112 -231 -184 -391 -210 -213 -34 -458 68 -583 244 -90
128 -125 234 -125 382 0 101 17 180 60 271 36 78 1069 1500 1137 1564 269 259
702 233 931 -56 51 -64 81 -125 297 -603 98 -215 180 -391 182 -389 1 2 21
500 42 1108 43 1184 45 1212 100 1334 75 164 238 302 414 350 79 21 229 19
322 -5z"/>
</g>
</svg>
